<svg width="1939" height="1939" viewBox="0 0 1939 1939" fill="none" xmlns="http://www.w3.org/2000/svg">
<rect x="0.648438" y="0.564209" width="1938" height="1938" rx="451.755" fill="white"/>
<path d="M1600.52 1195.29C1499.15 1195.29 1436.03 1129.74 1436.03 1022.3C1436.03 920.33 1500.36 855.991 1600.52 855.991C1700.67 855.991 1765.61 920.937 1765.61 1022.3C1765.61 1129.13 1701.88 1195.29 1600.52 1195.29ZM1521 1022.3C1521 1088.46 1551.96 1131.56 1600.52 1131.56C1649.07 1131.56 1680.64 1087.85 1680.64 1022.3C1680.64 959.783 1650.29 919.723 1600.52 919.723C1550.14 919.723 1521 959.176 1521 1022.3Z" fill="#8DE8D7"/>
<path d="M981.73 1079.93C981.73 1160.05 1013.29 1193.43 1094.02 1193.43H1320.51V1130.91H1098.27C1074.6 1130.91 1063.67 1112.71 1063.67 1069.61V925.757H1279.43V865.06H1063.67V783.726H981.73V925.757V1079.93Z" fill="#1FCFBA"/>
<path d="M1202.1 1079.93C1202.1 1160.05 1233.66 1193.43 1314.39 1193.43C1367.2 1193.43 1421.22 1179.47 1423.64 1092.68L1353.24 1086.61C1352.02 1115.13 1340.49 1130.91 1318.64 1130.91C1294.97 1130.91 1284.04 1112.71 1284.04 1069.61V925.757H1393.9V865.06H1284.04V783.726H1202.1V925.757V1079.93Z" fill="#1FCFBA"/>
<path d="M857.288 1197.01V879.559H939.23V1197.01H857.288ZM856.074 824.325V740.562H940.443V824.325H856.074Z" fill="#8DE8D7"/>
<path d="M677.427 1195.85C576.063 1195.85 512.938 1130.3 512.938 1022.86C512.938 920.891 577.277 856.552 677.427 856.552C777.578 856.552 842.524 921.498 842.524 1022.86C842.524 1129.69 778.792 1195.85 677.427 1195.85ZM597.914 1022.86C597.914 1089.02 628.869 1132.12 677.427 1132.12C725.985 1132.12 757.548 1088.42 757.548 1022.86C757.548 960.345 727.199 920.284 677.427 920.284C627.048 920.284 597.914 959.738 597.914 1022.86Z" fill="#8DE8D7"/>
<path d="M335.39 1193.43C252.841 1193.43 193.965 1129.09 193.965 1025.3C193.965 914.832 260.732 854.134 345.101 854.134C376.664 854.134 400.943 862.632 417.938 876.592V735.168H499.879V1182.51H422.794L420.973 1153.37C402.157 1177.65 374.843 1193.43 335.39 1193.43ZM278.941 1023.48C278.941 1093.28 306.255 1130.91 351.171 1130.91C378.485 1130.91 402.157 1117.56 417.938 1093.89V958.534C411.261 932.434 390.624 916.653 357.241 916.653C306.255 916.653 278.941 954.285 278.941 1023.48Z" fill="#8DE8D7"/>
</svg>
